<?xml version="1.0" encoding="UTF-8"?>
<svg id="Layer_1" xmlns="http://www.w3.org/2000/svg" version="1.1" viewBox="0 0 26.2 30">
  <!-- Generator: Adobe Illustrator 29.0.0, SVG Export Plug-In . SVG Version: 2.1.0 Build 186)  -->
  <defs>
    <style>
      .st0 {
        fill: #fff;
      }
    </style>
  </defs>
  <path class="st0" d="M0,3.8v1.9h26.2v-1.9c0-2.1-1.7-3.8-3.8-3.8H3.8C1.7,0,0,1.7,0,3.8ZM0,7.5v18.8c0,2.1,1.7,3.8,3.8,3.8h18.8c2.1,0,3.8-1.7,3.8-3.8V7.5H0ZM5.6,13.1c0-.5.4-.9.9-.9h13.1c.5,0,.9.4.9.9s-.4.9-.9.9H6.6c-.5,0-.9-.4-.9-.9ZM5.6,18.8c0-.5.4-.9.9-.9h13.1c.5,0,.9.4.9.9s-.4.9-.9.9H6.6c-.5,0-.9-.4-.9-.9ZM5.6,24.4c0-.5.4-.9.9-.9h5.6c.5,0,.9.4.9.9s-.4.9-.9.9h-5.6c-.5,0-.9-.4-.9-.9Z"/>
</svg>